<svg width="24" height="24" viewBox="0 0 24 24" fill="none" xmlns="http://www.w3.org/2000/svg">
<mask id="mask0_3_35" style="mask-type:alpha" maskUnits="userSpaceOnUse" x="0" y="0" width="24" height="24">
<rect width="24" height="24" fill="#D9D9D9"/>
</mask>
<g mask="url(#mask0_3_35)">
<path d="M8.0385 21.1152C7.62317 21.1152 7.26933 20.9691 6.977 20.6767C6.68467 20.3846 6.5385 20.0307 6.5385 19.6152V15.3152C6.5385 14.0819 6.7295 12.88 7.1115 11.7095C7.49367 10.539 8.09817 9.37748 8.925 8.22498L8.55 8.26348C7.98083 8.19032 7.49683 7.9304 7.098 7.48373C6.69933 7.0369 6.5 6.51857 6.5 5.92874V4.90773C6.5 4.2359 6.78658 3.67565 7.35975 3.22699C7.93275 2.77832 8.53975 2.58598 9.18075 2.64998L17.7153 3.47699C17.9602 3.50382 18.1523 3.6019 18.2913 3.77123C18.4304 3.9404 18.5 4.13715 18.5 4.36149V6.63449C18.5 6.85882 18.4221 7.05723 18.2663 7.22973C18.1106 7.40224 17.9205 7.5019 17.696 7.52874L16.8538 7.61924C17.0371 8.24224 17.2554 8.81049 17.5087 9.32399C17.7619 9.83749 18.0635 10.2743 18.4135 10.6345C18.5583 10.7897 18.6519 10.9685 18.6943 11.171C18.7366 11.3737 18.7071 11.5628 18.6058 11.7385C18.5044 11.914 18.3583 12.0307 18.1673 12.0885C17.9763 12.1462 17.8032 12.1057 17.648 11.9672C17.0788 11.4749 16.618 10.8617 16.2655 10.1277C15.9128 9.39373 15.6295 8.59982 15.4155 7.74599L13.6615 7.91348C13.7692 8.78515 14.0169 9.66049 14.4048 10.5395C14.7926 11.4183 15.223 12.2602 15.696 13.0652C15.9833 13.5602 16.1956 14.0786 16.3328 14.6202C16.4699 15.1619 16.5385 15.7102 16.5385 16.2652V19.6152C16.5385 20.0307 16.3923 20.3846 16.1 20.6767C15.8077 20.9691 15.4538 21.1152 15.0385 21.1152H8.0385ZM8 5.09998V5.89048C8 6.19048 8.10833 6.43215 8.325 6.61548C8.54167 6.79882 8.8 6.87382 9.1 6.84048L17 6.09048V4.89999L9.1 4.14998C8.8 4.11665 8.54167 4.19165 8.325 4.37498C8.10833 4.55832 8 4.79998 8 5.09998ZM8.0385 19.6152H15.0385V16.2652C15.0385 15.8191 14.9859 15.3925 14.8807 14.9855C14.7756 14.5785 14.6115 14.1833 14.3885 13.8C13.782 12.7653 13.2887 11.7817 12.9087 10.849C12.5286 9.91632 12.2795 8.9884 12.1615 8.06523L10.825 8.18073L10.0885 9.16523C9.42817 10.0551 8.92142 11.0276 8.56825 12.0827C8.21508 13.1377 8.0385 14.2152 8.0385 15.3152V19.6152Z" fill="#F3F5F9"/>
</g>
</svg>
