<svg width="24" height="24" viewBox="0 0 24 24" fill="none" xmlns="http://www.w3.org/2000/svg">
<mask id="mask0_3_19" style="mask-type:alpha" maskUnits="userSpaceOnUse" x="0" y="0" width="24" height="24">
<rect width="24" height="24" fill="#D9D9D9"/>
</mask>
<g mask="url(#mask0_3_19)">
<path d="M14.3652 22.5H11.1058C10.8544 22.5 10.641 22.4138 10.4655 22.2413C10.2898 22.0689 10.202 21.8603 10.202 21.6152V16.0095C10.202 15.7647 10.2898 15.5561 10.4655 15.3837C10.641 15.2113 10.8544 15.125 11.1058 15.125H11.9808V11.673C11.9808 11.5897 11.9471 11.5192 11.8798 11.4615C11.8124 11.4038 11.7307 11.375 11.6345 11.375H4.34625C3.83475 11.375 3.39917 11.1984 3.0395 10.8453C2.67983 10.4919 2.5 10.0659 2.5 9.56725V6.048C2.5 5.55583 2.67983 5.13308 3.0395 4.77975C3.39917 4.42658 3.83475 4.25 4.34625 4.25H5.9615V3.38475C5.9615 3.13975 6.04933 2.93108 6.225 2.75875C6.40067 2.58625 6.61408 2.5 6.86525 2.5H18.596C18.8473 2.5 19.0608 2.58625 19.2365 2.75875C19.4122 2.93108 19.5 3.13975 19.5 3.38475V6.61525C19.5 6.86025 19.4122 7.06892 19.2365 7.24125C19.0608 7.41375 18.8473 7.5 18.596 7.5H6.86525C6.61408 7.5 6.40067 7.41375 6.225 7.24125C6.04933 7.06892 5.9615 6.86025 5.9615 6.61525V5.75H4.34625C4.24358 5.75 4.16025 5.77883 4.09625 5.8365C4.03208 5.89417 4 5.96467 4 6.048V9.56725C4 9.65708 4.03208 9.73083 4.09625 9.7885C4.16025 9.84617 4.24358 9.875 4.34625 9.875H11.6345C12.1397 9.875 12.5737 10.0516 12.9365 10.4048C13.2993 10.7579 13.4808 11.1807 13.4808 11.673V15.125H14.3652C14.6166 15.125 14.8285 15.2113 15.001 15.3837C15.1733 15.5561 15.2595 15.7647 15.2595 16.0095V21.6152C15.2595 21.8603 15.1733 22.0689 15.001 22.2413C14.8285 22.4138 14.6166 22.5 14.3652 22.5ZM11.702 21H13.7595V16.625H11.702V21ZM7.4615 6H18V4H7.4615V6Z" fill="#F3F5F9"/>
</g>
</svg>
