<svg width="30" height="30" viewBox="0 0 30 30" fill="none" xmlns="http://www.w3.org/2000/svg">
<mask id="mask0_6_23" style="mask-type:alpha" maskUnits="userSpaceOnUse" x="0" y="0" width="30" height="30">
<rect width="30" height="30" fill="#D9D9D9"/>
</mask>
<g mask="url(#mask0_6_23)">
<path d="M6.90631 21.1563C8.07298 20.2813 9.34381 19.6094 10.7188 19.1406C12.0938 18.6719 13.5209 18.4375 15.0001 18.4375C16.4792 18.4375 17.9063 18.6719 19.2813 19.1406C20.6563 19.6094 21.9271 20.2813 23.0938 21.1563C23.823 20.1979 24.3542 19.2135 24.6876 18.2031C25.0209 17.1927 25.1876 16.125 25.1876 15C25.1876 12.2083 24.1876 9.8125 22.1876 7.8125C20.1876 5.8125 17.7917 4.8125 15.0001 4.8125C12.2084 4.8125 9.81256 5.8125 7.81256 7.8125C5.81256 9.8125 4.81256 12.2083 4.81256 15C4.81256 16.125 4.97923 17.1927 5.31256 18.2031C5.64589 19.2135 6.17715 20.1979 6.90631 21.1563ZM15.0026 17C13.5634 17 12.349 16.506 11.3594 15.5181C10.3699 14.5302 9.87506 13.3167 9.87506 11.8775C9.87506 10.4383 10.369 9.22396 11.3569 8.23438C12.3449 7.24479 13.5584 6.75 14.9976 6.75C16.4367 6.75 17.6511 7.24396 18.6407 8.23187C19.6303 9.21979 20.1251 10.4333 20.1251 11.8725C20.1251 13.3117 19.6311 14.526 18.6432 15.5156C17.6553 16.5052 16.4417 17 15.0026 17ZM15.0001 28.5C13.1667 28.5 11.4267 28.1431 9.78006 27.4294C8.1336 26.7154 6.70131 25.7467 5.48319 24.5231C4.26527 23.2994 3.29694 21.8646 2.57819 20.2188C1.85944 18.5729 1.50006 16.8281 1.50006 14.9844C1.50006 13.1406 1.85944 11.401 2.57819 9.76563C3.29694 8.13021 4.26527 6.70063 5.48319 5.47688C6.70131 4.25333 8.1336 3.28458 9.78006 2.57063C11.4267 1.85688 13.1719 1.5 15.0157 1.5C16.8594 1.5 18.599 1.85938 20.2344 2.57813C21.8699 3.29688 23.2969 4.26563 24.5157 5.48438C25.7344 6.70313 26.7032 8.12938 27.4219 9.76313C28.1407 11.3969 28.5001 13.1425 28.5001 15C28.5001 16.8333 28.1432 18.5733 27.4294 20.22C26.7155 21.8665 25.7467 23.2988 24.5232 24.5169C23.2994 25.7348 21.8707 26.7031 20.2369 27.4219C18.6032 28.1406 16.8576 28.5 15.0001 28.5ZM15.0001 25.1875C16.0001 25.1875 16.9792 25.0417 17.9376 24.75C18.8959 24.4583 19.7813 24.0313 20.5938 23.4688C19.7813 22.9063 18.8959 22.4792 17.9376 22.1875C16.9792 21.8958 16.0001 21.75 15.0001 21.75C14.0001 21.75 13.0209 21.8958 12.0626 22.1875C11.1042 22.4792 10.2188 22.9063 9.40631 23.4688C10.2188 24.0313 11.1042 24.4583 12.0626 24.75C13.0209 25.0417 14.0001 25.1875 15.0001 25.1875ZM15.0001 13.6875C15.5001 13.6875 15.9271 13.5104 16.2813 13.1563C16.6355 12.8021 16.8126 12.375 16.8126 11.875C16.8126 11.375 16.6355 10.9479 16.2813 10.5938C15.9271 10.2396 15.5001 10.0625 15.0001 10.0625C14.5001 10.0625 14.073 10.2396 13.7188 10.5938C13.3646 10.9479 13.1876 11.375 13.1876 11.875C13.1876 12.375 13.3646 12.8021 13.7188 13.1563C14.073 13.5104 14.5001 13.6875 15.0001 13.6875Z" fill="#012333"/>
</g>
</svg>
