<svg width="30" height="30" viewBox="0 0 30 30" fill="none" xmlns="http://www.w3.org/2000/svg">
<mask id="mask0_6_15" style="mask-type:alpha" maskUnits="userSpaceOnUse" x="0" y="0" width="30" height="30">
<rect width="30" height="30" fill="#D9D9D9"/>
</mask>
<g mask="url(#mask0_6_15)">
<path d="M6.06248 27.0625C5.12498 27.0625 4.33853 26.7448 3.70311 26.1094C3.06769 25.474 2.74998 24.6875 2.74998 23.75V5.9375C2.74998 5 3.06769 4.21354 3.70311 3.57812C4.33853 2.94271 5.12498 2.625 6.06248 2.625H10.5625C11.0417 1.85417 11.6719 1.23437 12.4531 0.765625C13.2344 0.296875 14.0833 0.0625 15 0.0625C15.9167 0.0625 16.7656 0.296875 17.5469 0.765625C18.3281 1.23437 18.9583 1.85417 19.4375 2.625H23.9375C24.875 2.625 25.6614 2.94271 26.2969 3.57812C26.9323 4.21354 27.25 5 27.25 5.9375V23.75C27.25 24.6875 26.9323 25.474 26.2969 26.1094C25.6614 26.7448 24.875 27.0625 23.9375 27.0625H6.06248ZM6.06248 23.75H23.9375V5.9375H6.06248V23.75ZM9.90623 21.7812H16.2812C16.7396 21.7812 17.1302 21.6198 17.4531 21.2969C17.776 20.974 17.9375 20.5833 17.9375 20.125C17.9375 19.6667 17.776 19.276 17.4531 18.9531C17.1302 18.6302 16.7396 18.4687 16.2812 18.4687H9.90623C9.4479 18.4687 9.05728 18.6302 8.73436 18.9531C8.41144 19.276 8.24998 19.6667 8.24998 20.125C8.24998 20.5833 8.41144 20.974 8.73436 21.2969C9.05728 21.6198 9.4479 21.7812 9.90623 21.7812ZM9.90623 16.5H20.0937C20.5521 16.5 20.9427 16.3385 21.2656 16.0156C21.5885 15.6927 21.75 15.3021 21.75 14.8437C21.75 14.3854 21.5885 13.9948 21.2656 13.6719C20.9427 13.349 20.5521 13.1875 20.0937 13.1875H9.90623C9.4479 13.1875 9.05728 13.349 8.73436 13.6719C8.41144 13.9948 8.24998 14.3854 8.24998 14.8437C8.24998 15.3021 8.41144 15.6927 8.73436 16.0156C9.05728 16.3385 9.4479 16.5 9.90623 16.5ZM9.90623 11.2187H20.0937C20.5521 11.2187 20.9427 11.0573 21.2656 10.7344C21.5885 10.4115 21.75 10.0208 21.75 9.5625C21.75 9.10417 21.5885 8.71354 21.2656 8.39062C20.9427 8.06771 20.5521 7.90625 20.0937 7.90625H9.90623C9.4479 7.90625 9.05728 8.06771 8.73436 8.39062C8.41144 8.71354 8.24998 9.10417 8.24998 9.5625C8.24998 10.0208 8.41144 10.4115 8.73436 10.7344C9.05728 11.0573 9.4479 11.2187 9.90623 11.2187ZM15 4.8125C15.2708 4.8125 15.4948 4.72396 15.6719 4.54687C15.8489 4.36979 15.9375 4.14583 15.9375 3.875C15.9375 3.60417 15.8489 3.38021 15.6719 3.20312C15.4948 3.02604 15.2708 2.9375 15 2.9375C14.7292 2.9375 14.5052 3.02604 14.3281 3.20312C14.151 3.38021 14.0625 3.60417 14.0625 3.875C14.0625 4.14583 14.151 4.36979 14.3281 4.54687C14.5052 4.72396 14.7292 4.8125 15 4.8125Z" fill="#012333"/>
</g>
</svg>
