<svg width="30" height="30" viewBox="0 0 30 30" fill="none" xmlns="http://www.w3.org/2000/svg">
<mask id="mask0_6_11" style="mask-type:alpha" maskUnits="userSpaceOnUse" x="0" y="0" width="30" height="30">
<rect width="30" height="30" fill="#D9D9D9"/>
</mask>
<g mask="url(#mask0_6_11)">
<path d="M11.7813 20.6874C9.30209 20.6874 7.20313 19.828 5.48438 18.1093C3.76563 16.3905 2.90626 14.2915 2.90626 11.8124C2.90626 9.33321 3.76563 7.23425 5.48438 5.5155C7.20313 3.79675 9.30209 2.93738 11.7813 2.93738C14.2604 2.93738 16.3594 3.79675 18.0781 5.5155C19.7969 7.23425 20.6563 9.33321 20.6563 11.8124C20.6563 12.7499 20.5261 13.6457 20.2656 14.4999C20.0052 15.354 19.625 16.1145 19.125 16.7811L25.9375 23.5936C26.25 23.9061 26.4063 24.2915 26.4063 24.7499C26.4063 25.2082 26.25 25.5936 25.9375 25.9061C25.625 26.2186 25.2396 26.3749 24.7813 26.3749C24.3229 26.3749 23.9375 26.2186 23.625 25.9061L16.8438 19.1249C16.2188 19.604 15.4531 19.9843 14.5469 20.2655C13.6406 20.5468 12.7188 20.6874 11.7813 20.6874ZM11.7813 17.3749C13.3438 17.3749 14.6615 16.8384 15.7344 15.7655C16.8073 14.6926 17.3438 13.3749 17.3438 11.8124C17.3438 10.2499 16.8073 8.93217 15.7344 7.85925C14.6615 6.78634 13.3438 6.24988 11.7813 6.24988C10.2188 6.24988 8.90105 6.78634 7.82813 7.85925C6.75522 8.93217 6.21876 10.2499 6.21876 11.8124C6.21876 13.3749 6.75522 14.6926 7.82813 15.7655C8.90105 16.8384 10.2188 17.3749 11.7813 17.3749Z" fill="#012333"/>
</g>
</svg>
