<svg width="30" height="30" viewBox="0 0 30 30" fill="none" xmlns="http://www.w3.org/2000/svg">
<mask id="mask0_6_19" style="mask-type:alpha" maskUnits="userSpaceOnUse" x="0" y="0" width="30" height="30">
<rect width="30" height="30" fill="#D9D9D9"/>
</mask>
<g mask="url(#mask0_6_19)">
<path d="M7.3125 22.9999L4.3125 25.9999C3.79167 26.5207 3.19271 26.6376 2.51562 26.3505C1.83854 26.0634 1.5 25.5507 1.5 24.8124V4.43738C1.5 3.52654 1.82438 2.74675 2.47313 2.098C3.12188 1.44925 3.90167 1.12488 4.8125 1.12488H25.1875C26.0983 1.12488 26.8781 1.44925 27.5269 2.098C28.1756 2.74675 28.5 3.52654 28.5 4.43738V19.6874C28.5 20.5984 28.1756 21.3782 27.5269 22.0268C26.8781 22.6755 26.0983 22.9999 25.1875 22.9999H7.3125ZM5.9375 19.6874H25.1875V4.43738H4.8125V20.8124L5.9375 19.6874ZM8.25 17.4999H16.6875C17.0417 17.4999 17.3385 17.3801 17.5781 17.1405C17.8177 16.9009 17.9375 16.604 17.9375 16.2499C17.9375 15.8957 17.8177 15.5988 17.5781 15.3593C17.3385 15.1197 17.0417 14.9999 16.6875 14.9999H8.25C7.89583 14.9999 7.59896 15.1197 7.35938 15.3593C7.11979 15.5988 7 15.8957 7 16.2499C7 16.604 7.11979 16.9009 7.35938 17.1405C7.59896 17.3801 7.89583 17.4999 8.25 17.4999ZM8.25 13.2811H21.75C22.1042 13.2811 22.401 13.1613 22.6406 12.9218C22.8802 12.6822 23 12.3853 23 12.0311C23 11.677 22.8802 11.3801 22.6406 11.1405C22.401 10.9009 22.1042 10.7811 21.75 10.7811H8.25C7.89583 10.7811 7.59896 10.9009 7.35938 11.1405C7.11979 11.3801 7 11.677 7 12.0311C7 12.3853 7.11979 12.6822 7.35938 12.9218C7.59896 13.1613 7.89583 13.2811 8.25 13.2811ZM8.25 9.06238H21.75C22.1042 9.06238 22.401 8.94259 22.6406 8.703C22.8802 8.46342 23 8.16654 23 7.81238C23 7.45821 22.8802 7.16134 22.6406 6.92175C22.401 6.68217 22.1042 6.56238 21.75 6.56238H8.25C7.89583 6.56238 7.59896 6.68217 7.35938 6.92175C7.11979 7.16134 7 7.45821 7 7.81238C7 8.16654 7.11979 8.46342 7.35938 8.703C7.59896 8.94259 7.89583 9.06238 8.25 9.06238Z" fill="#012333"/>
</g>
</svg>
