<svg width="30" height="30" viewBox="0 0 30 30" fill="none" xmlns="http://www.w3.org/2000/svg">
<mask id="mask0_6_7" style="mask-type:alpha" maskUnits="userSpaceOnUse" x="0" y="0" width="30" height="30">
<rect width="30" height="30" fill="#D9D9D9"/>
</mask>
<g mask="url(#mask0_6_7)">
<path d="M13.25 16.75L10.7813 14.2812C10.4688 13.9688 10.0833 13.8125 9.62501 13.8125C9.16667 13.8125 8.78126 13.9688 8.46876 14.2812C8.15626 14.5938 8.00001 14.9792 8.00001 15.4375C8.00001 15.8958 8.15626 16.2812 8.46876 16.5938L12.0938 20.2188C12.4233 20.5521 12.8078 20.7188 13.2472 20.7188C13.6866 20.7188 14.0729 20.5521 14.4063 20.2188L21.5938 13.0312C21.9063 12.7188 22.0625 12.3333 22.0625 11.875C22.0625 11.4167 21.9063 11.0312 21.5938 10.7188C21.2813 10.4062 20.8958 10.25 20.4375 10.25C19.9792 10.25 19.5938 10.4062 19.2813 10.7188L13.25 16.75ZM15 28.5C13.1325 28.5 11.3775 28.1456 9.73501 27.4369C8.09251 26.7281 6.66376 25.7663 5.44876 24.5513C4.23376 23.3363 3.27188 21.9075 2.56313 20.265C1.85438 18.6225 1.50001 16.8675 1.50001 15C1.50001 13.1271 1.85501 11.3671 2.56501 9.72C3.27501 8.07271 4.23855 6.6399 5.45563 5.42156C6.67272 4.20302 8.10147 3.24479 9.74188 2.54688C11.3823 1.84896 13.135 1.5 15 1.5C16.8727 1.5 18.6325 1.84896 20.2794 2.54688C21.9265 3.24479 23.3594 4.20312 24.5781 5.42188C25.7969 6.64062 26.7552 8.07375 27.4531 9.72125C28.1511 11.369 28.5 13.1294 28.5 15.0025C28.5 16.8758 28.1511 18.6302 27.4531 20.2656C26.7552 21.901 25.797 23.3273 24.5784 24.5444C23.3601 25.7615 21.9273 26.725 20.28 27.435C18.6329 28.145 16.8729 28.5 15 28.5ZM15 25.1875C17.844 25.1875 20.2529 24.2006 22.2269 22.2269C24.2006 20.2529 25.1875 17.844 25.1875 15C25.1875 12.156 24.2006 9.74708 22.2269 7.77312C20.2529 5.79937 17.844 4.8125 15 4.8125C12.156 4.8125 9.74709 5.79937 7.77313 7.77312C5.79938 9.74708 4.81251 12.156 4.81251 15C4.81251 17.844 5.79938 20.2529 7.77313 22.2269C9.74709 24.2006 12.156 25.1875 15 25.1875Z" fill="#012333"/>
</g>
</svg>
