<svg width="40" height="40" viewBox="0 0 40 40" fill="none" xmlns="http://www.w3.org/2000/svg">
<mask id="mask0_8_309" style="mask-type:alpha" maskUnits="userSpaceOnUse" x="0" y="0" width="40" height="40">
<rect width="40" height="40" fill="#D9D9D9"/>
</mask>
<g mask="url(#mask0_8_309)">
<path d="M30 25V21.6666H33.3333C33.8056 21.6666 34.2014 21.8263 34.5208 22.1458C34.8403 22.4652 35 22.8611 35 23.3333C35 23.8055 34.8403 24.2013 34.5208 24.5208C34.2014 24.8402 33.8056 25 33.3333 25H30ZM30 31.6666V28.3333H33.3333C33.8056 28.3333 34.2014 28.493 34.5208 28.8125C34.8403 29.1319 35 29.5277 35 30C35 30.4722 34.8403 30.868 34.5208 31.1875C34.2014 31.5069 33.8056 31.6666 33.3333 31.6666H30ZM23.3333 33.3333C22.4167 33.3333 21.6319 33.0069 20.9792 32.3541C20.3264 31.7013 20 30.9166 20 30H16.6667V23.3333H20C20 22.4166 20.3264 21.6319 20.9792 20.9791C21.6319 20.3263 22.4167 20 23.3333 20H28.3333V33.3333H23.3333ZM11.6667 28.3333C9.83333 28.3333 8.26389 27.6805 6.95833 26.375C5.65278 25.0694 5 23.5 5 21.6666C5 19.8333 5.65278 18.2638 6.95833 16.9583C8.26389 15.6527 9.83333 15 11.6667 15H14.1667C14.8611 15 15.4514 14.7569 15.9375 14.2708C16.4236 13.7847 16.6667 13.1944 16.6667 12.5C16.6667 11.8055 16.4236 11.2152 15.9375 10.7291C15.4514 10.243 14.8611 9.99996 14.1667 9.99996H8.33333C7.86111 9.99996 7.46528 9.84024 7.14583 9.52079C6.82639 9.20135 6.66667 8.80551 6.66667 8.33329C6.66667 7.86107 6.82639 7.46524 7.14583 7.14579C7.46528 6.82635 7.86111 6.66663 8.33333 6.66663H14.1667C15.7778 6.66663 17.1528 7.23607 18.2917 8.37496C19.4306 9.51385 20 10.8888 20 12.5C20 14.1111 19.4306 15.4861 18.2917 16.625C17.1528 17.7638 15.7778 18.3333 14.1667 18.3333H11.6667C10.75 18.3333 9.96528 18.6597 9.3125 19.3125C8.65972 19.9652 8.33333 20.75 8.33333 21.6666C8.33333 22.5833 8.65972 23.368 9.3125 24.0208C9.96528 24.6736 10.75 25 11.6667 25H15V28.3333H11.6667Z" fill="#012333"/>
</g>
</svg>
