<svg width="40" height="40" viewBox="0 0 40 40" fill="none" xmlns="http://www.w3.org/2000/svg">
<mask id="mask0_11_107" style="mask-type:alpha" maskUnits="userSpaceOnUse" x="0" y="0" width="40" height="40">
<rect width="40" height="40" fill="#D9D9D9"/>
</mask>
<g mask="url(#mask0_11_107)">
<path d="M17.75 33.3334C17.5 32.6112 17.1806 31.9445 16.7917 31.3334C16.4028 30.7223 15.9445 30.1528 15.4167 29.625C14.8889 29.0973 14.3195 28.632 13.7083 28.2292C13.0972 27.8264 12.4306 27.5 11.7083 27.25C11.7639 28.0556 11.9583 28.8056 12.2917 29.5C12.625 30.1945 13.0695 30.8195 13.625 31.375C14.1806 31.9306 14.8056 32.382 15.5 32.7292C16.1945 33.0764 16.9445 33.2778 17.75 33.3334ZM22.25 33.3334C23.0556 33.25 23.8056 33.0417 24.5 32.7084C25.1945 32.375 25.8195 31.9306 26.375 31.375C26.9306 30.8195 27.375 30.1945 27.7083 29.5C28.0417 28.8056 28.25 28.0556 28.3333 27.25C27.6111 27.5 26.9375 27.8195 26.3125 28.2084C25.6875 28.5973 25.1111 29.0556 24.5833 29.5834C24.0556 30.1112 23.5972 30.6875 23.2083 31.3125C22.8195 31.9375 22.5 32.6112 22.25 33.3334ZM20 18.3334C21.8333 18.3334 23.4028 17.6806 24.7083 16.375C26.0139 15.0695 26.6667 13.5 26.6667 11.6667V9.66671L23.75 12.125L20 7.58337L16.25 12.125L13.3333 9.66671V11.6667C13.3333 13.5 13.9861 15.0695 15.2917 16.375C16.5972 17.6806 18.1667 18.3334 20 18.3334ZM18.3333 36.6667C15.5556 36.6667 13.1945 35.6945 11.25 33.75C9.30557 31.8056 8.33334 29.4445 8.33334 26.6667V23.3334C10.3056 23.3056 12.1667 23.7084 13.9167 24.5417C15.6667 25.375 17.1389 26.5 18.3333 27.9167V21.5417C15.9445 21.1528 13.9583 20.0348 12.375 18.1875C10.7917 16.3403 10 14.1667 10 11.6667V6.00004C10 5.27782 10.3195 4.77087 10.9583 4.47921C11.5972 4.18754 12.1945 4.27782 12.75 4.75004L15.8333 7.41671L18.7083 3.91671C19.0417 3.52782 19.4722 3.33337 20 3.33337C20.5278 3.33337 20.9583 3.52782 21.2917 3.91671L24.1667 7.41671L27.25 4.75004C27.8056 4.27782 28.4028 4.18754 29.0417 4.47921C29.6806 4.77087 30 5.27782 30 6.00004V11.6667C30 14.1667 29.2083 16.3403 27.625 18.1875C26.0417 20.0348 24.0556 21.1528 21.6667 21.5417V27.9167C22.8611 26.5 24.3333 25.375 26.0833 24.5417C27.8333 23.7084 29.6945 23.3056 31.6667 23.3334V26.6667C31.6667 29.4445 30.6945 31.8056 28.75 33.75C26.8056 35.6945 24.4445 36.6667 21.6667 36.6667H18.3333Z" fill="#012333"/>
</g>
</svg>
