<svg width="40" height="40" viewBox="0 0 40 40" fill="none" xmlns="http://www.w3.org/2000/svg">
<mask id="mask0_9_49" style="mask-type:alpha" maskUnits="userSpaceOnUse" x="0" y="0" width="40" height="40">
<rect width="40" height="40" fill="#D9D9D9"/>
</mask>
<g mask="url(#mask0_9_49)">
<path d="M31.5 35L22.375 25.875L25.875 22.375L35 31.5L31.5 35ZM8.5 35L5 31.5L16.5 20L13.6667 17.1667L12.5 18.3334L10.375 16.2084V19.625L9.20833 20.7917L4.16666 15.75L5.33333 14.5834H8.75L6.66666 12.5L12.5833 6.58337C13.1389 6.02782 13.7361 5.62504 14.375 5.37504C15.0139 5.12504 15.6667 5.00004 16.3333 5.00004C17 5.00004 17.6528 5.12504 18.2917 5.37504C18.9306 5.62504 19.5278 6.02782 20.0833 6.58337L16.25 10.4167L18.3333 12.5L17.1667 13.6667L20 16.5L23.75 12.75C23.6389 12.4445 23.5486 12.125 23.4792 11.7917C23.4097 11.4584 23.375 11.125 23.375 10.7917C23.375 9.15282 23.9375 7.77087 25.0625 6.64587C26.1875 5.52087 27.5694 4.95837 29.2083 4.95837C29.625 4.95837 30.0208 5.00004 30.3958 5.08337C30.7708 5.16671 31.1528 5.29171 31.5417 5.45837L27.4167 9.58337L30.4167 12.5834L34.5417 8.45837C34.7361 8.84726 34.8681 9.22921 34.9375 9.60421C35.0069 9.97921 35.0417 10.375 35.0417 10.7917C35.0417 12.4306 34.4792 13.8125 33.3542 14.9375C32.2292 16.0625 30.8472 16.625 29.2083 16.625C28.875 16.625 28.5417 16.5973 28.2083 16.5417C27.875 16.4862 27.5556 16.3889 27.25 16.25L8.5 35Z" fill="#012333"/>
</g>
</svg>
