<svg width="16" height="16" viewBox="0 0 16 16" fill="none" xmlns="http://www.w3.org/2000/svg">
<mask id="mask0_184_209" style="mask-type:alpha" maskUnits="userSpaceOnUse" x="0" y="0" width="16" height="16">
<rect width="16" height="16" fill="#D9D9D9"/>
</mask>
<g mask="url(#mask0_184_209)">
<path d="M3.33331 12.6665H4.17431L10.9986 5.84213L10.1576 5.00113L3.33331 11.8255V12.6665ZM2.93598 13.6665C2.7652 13.6665 2.62209 13.6087 2.50665 13.4931C2.39109 13.3777 2.33331 13.2346 2.33331 13.0638V11.9088C2.33331 11.7462 2.36454 11.5913 2.42698 11.444C2.48931 11.2966 2.5752 11.1682 2.68465 11.0588L11.127 2.6203C11.2278 2.52874 11.339 2.45802 11.4608 2.40813C11.5827 2.35813 11.7105 2.33313 11.8441 2.33313C11.9778 2.33313 12.1073 2.35685 12.2325 2.4043C12.3578 2.45174 12.4688 2.52719 12.5653 2.63063L13.3795 3.45496C13.4829 3.55152 13.5566 3.66263 13.6006 3.7883C13.6446 3.91396 13.6666 4.03963 13.6666 4.1653C13.6666 4.29941 13.6438 4.42735 13.598 4.54913C13.5522 4.67102 13.4794 4.78235 13.3795 4.88313L4.94098 13.3151C4.83154 13.4246 4.70315 13.5105 4.55581 13.5728C4.40848 13.6352 4.25354 13.6665 4.09098 13.6665H2.93598ZM10.5708 5.42896L10.1576 5.00113L10.9986 5.84213L10.5708 5.42896Z" fill="#BEFBDB"/>
</g>
</svg>
