<svg width="34" height="34" viewBox="0 0 34 34" fill="none" xmlns="http://www.w3.org/2000/svg">
<mask id="mask0_59_442" style="mask-type:alpha" maskUnits="userSpaceOnUse" x="0" y="0" width="34" height="34">
<rect width="34" height="34" fill="#D9D9D9"/>
</mask>
<g mask="url(#mask0_59_442)">
<path d="M8.2875 24.2252C9.49167 23.3043 10.8375 22.5783 12.325 22.047C13.8125 21.5158 15.3708 21.2502 17 21.2502C18.6292 21.2502 20.1875 21.5158 21.675 22.047C23.1625 22.5783 24.5083 23.3043 25.7125 24.2252C26.5389 23.2571 27.1823 22.1592 27.6427 20.9314C28.1031 19.7036 28.3333 18.3932 28.3333 17.0002C28.3333 13.8599 27.2295 11.1859 25.0219 8.97829C22.8142 6.77065 20.1403 5.66683 17 5.66683C13.8597 5.66683 11.1858 6.77065 8.97813 8.97829C6.77049 11.1859 5.66667 13.8599 5.66667 17.0002C5.66667 18.3932 5.89688 19.7036 6.35729 20.9314C6.81771 22.1592 7.46111 23.2571 8.2875 24.2252ZM17 18.4168C15.6069 18.4168 14.4323 17.9387 13.476 16.9825C12.5198 16.0262 12.0417 14.8516 12.0417 13.4585C12.0417 12.0654 12.5198 10.8908 13.476 9.93454C14.4323 8.97829 15.6069 8.50016 17 8.50016C18.3931 8.50016 19.5677 8.97829 20.524 9.93454C21.4802 10.8908 21.9583 12.0654 21.9583 13.4585C21.9583 14.8516 21.4802 16.0262 20.524 16.9825C19.5677 17.9387 18.3931 18.4168 17 18.4168ZM17 31.1668C15.0403 31.1668 13.1986 30.795 11.475 30.0512C9.75139 29.3075 8.25209 28.2981 6.97709 27.0231C5.70209 25.7481 4.69271 24.2488 3.94896 22.5252C3.20521 20.8016 2.83334 18.9599 2.83334 17.0002C2.83334 15.0404 3.20521 13.1988 3.94896 11.4752C4.69271 9.75155 5.70209 8.25225 6.97709 6.97725C8.25209 5.70225 9.75139 4.69287 11.475 3.94912C13.1986 3.20537 15.0403 2.8335 17 2.8335C18.9597 2.8335 20.8014 3.20537 22.525 3.94912C24.2486 4.69287 25.7479 5.70225 27.0229 6.97725C28.2979 8.25225 29.3073 9.75155 30.051 11.4752C30.7948 13.1988 31.1667 15.0404 31.1667 17.0002C31.1667 18.9599 30.7948 20.8016 30.051 22.5252C29.3073 24.2488 28.2979 25.7481 27.0229 27.0231C25.7479 28.2981 24.2486 29.3075 22.525 30.0512C20.8014 30.795 18.9597 31.1668 17 31.1668Z" fill="#012333"/>
</g>
</svg>
