<svg width="34" height="34" viewBox="0 0 34 34" fill="none" xmlns="http://www.w3.org/2000/svg">
<mask id="mask0_184_237" style="mask-type:alpha" maskUnits="userSpaceOnUse" x="0" y="0" width="34" height="34">
<rect width="34" height="34" fill="#D9D9D9"/>
</mask>
<g mask="url(#mask0_184_237)">
<path d="M8.5326 24.4973C9.73677 23.6039 11.0486 22.8983 12.4681 22.3805C13.8874 21.8629 15.398 21.6041 17 21.6041C18.602 21.6041 20.1127 21.8629 21.5319 22.3805C22.9514 22.8983 24.2633 23.6039 25.4674 24.4973C26.3481 23.5293 27.046 22.4087 27.5609 21.1356C28.0759 19.8625 28.3334 18.4839 28.3334 17C28.3334 13.8597 27.2295 11.1857 25.0219 8.97808C22.8143 6.77045 20.1403 5.66663 17 5.66663C13.8597 5.66663 11.1858 6.77045 8.97815 8.97808C6.77051 11.1857 5.66669 13.8597 5.66669 17C5.66669 18.4839 5.92417 19.8625 6.43912 21.1356C6.95408 22.4087 7.65191 23.5293 8.5326 24.4973ZM17.0004 18.0625C15.707 18.0625 14.6162 17.6186 13.7282 16.7308C12.84 15.8428 12.3959 14.7521 12.3959 13.4586C12.3959 12.1652 12.8397 11.0745 13.7275 10.1865C14.6155 9.29825 15.7062 8.85413 16.9997 8.85413C18.2931 8.85413 19.3838 9.29801 20.2718 10.1858C21.1601 11.0738 21.6042 12.1645 21.6042 13.4579C21.6042 14.7514 21.1603 15.8421 20.2725 16.7301C19.3845 17.6183 18.2938 18.0625 17.0004 18.0625ZM17 30.4583C15.1312 30.4583 13.3781 30.1068 11.7406 29.4039C10.1032 28.701 8.67887 27.7438 7.46762 26.5324C6.25614 25.3211 5.29894 23.8968 4.59604 22.2593C3.89314 20.6219 3.54169 18.8688 3.54169 17C3.54169 15.1311 3.89314 13.378 4.59604 11.7406C5.29894 10.1032 6.25614 8.67881 7.46762 7.46756C8.67887 6.25608 10.1032 5.29888 11.7406 4.59598C13.3781 3.89308 15.1312 3.54163 17 3.54163C18.8688 3.54163 20.622 3.89308 22.2594 4.59598C23.8968 5.29888 25.3212 6.25608 26.5324 7.46756C27.7439 8.67881 28.7011 10.1032 29.404 11.7406C30.1069 13.378 30.4584 15.1311 30.4584 17C30.4584 18.8688 30.1069 20.6219 29.404 22.2593C28.7011 23.8968 27.7439 25.3211 26.5324 26.5324C25.3212 27.7438 23.8968 28.701 22.2594 29.4039C20.622 30.1068 18.8688 30.4583 17 30.4583ZM17 28.3333C18.2786 28.3333 19.5113 28.1276 20.6982 27.7163C21.8852 27.3048 22.939 26.7295 23.8599 25.9905C22.939 25.2784 21.8989 24.7235 20.7393 24.3259C19.5795 23.928 18.3331 23.7291 17 23.7291C15.6669 23.7291 14.4183 23.9257 13.254 24.3188C12.0897 24.7122 11.0518 25.2694 10.1402 25.9905C11.061 26.7295 12.1149 27.3048 13.3018 27.7163C14.4887 28.1276 15.7215 28.3333 17 28.3333ZM17 15.9375C17.7048 15.9375 18.2941 15.7004 18.768 15.2263C19.2421 14.7524 19.4792 14.1631 19.4792 13.4583C19.4792 12.7535 19.2421 12.1642 18.768 11.6903C18.2941 11.2162 17.7048 10.9791 17 10.9791C16.2952 10.9791 15.7059 11.2162 15.232 11.6903C14.7579 12.1642 14.5209 12.7535 14.5209 13.4583C14.5209 14.1631 14.7579 14.7524 15.232 15.2263C15.7059 15.7004 16.2952 15.9375 17 15.9375Z" fill="#012333"/>
</g>
</svg>
