<svg width="34" height="34" viewBox="0 0 34 34" fill="none" xmlns="http://www.w3.org/2000/svg">
<mask id="mask0_184_232" style="mask-type:alpha" maskUnits="userSpaceOnUse" x="0" y="0" width="34" height="34">
<rect width="34" height="34" fill="#D9D9D9"/>
</mask>
<g mask="url(#mask0_184_232)">
<path d="M17 27.6438C19.7715 25.1628 21.8923 22.783 23.3626 20.5045C24.8329 18.2261 25.568 16.2305 25.568 14.5177C25.568 11.9351 24.7475 9.81202 23.1065 8.14838C21.4656 6.48474 19.4301 5.65292 17 5.65292C14.57 5.65292 12.5344 6.48474 10.8935 8.14838C9.25249 9.81202 8.43201 11.9351 8.43201 14.5177C8.43201 16.2305 9.16714 18.2261 10.6374 20.5045C12.1077 22.783 14.2285 25.1628 17 27.6438ZM17 29.6651C16.724 29.6651 16.448 29.6175 16.172 29.5223C15.8957 29.427 15.6459 29.2794 15.4225 29.0796C14.1513 27.9081 12.9617 26.7015 11.8536 25.4601C10.7458 24.2188 9.7828 22.9779 8.96467 21.7374C8.14631 20.4969 7.49878 19.2673 7.02207 18.0488C6.54536 16.83 6.30701 15.6529 6.30701 14.5177C6.30701 11.2485 7.36443 8.60183 9.47928 6.57765C11.5944 4.55347 14.1013 3.54138 17 3.54138C19.8987 3.54138 22.4057 4.55347 24.5207 6.57765C26.6356 8.60183 27.693 11.2485 27.693 14.5177C27.693 15.6529 27.4547 16.8276 26.9779 18.0417C26.5012 19.256 25.8561 20.4857 25.0424 21.7307C24.2285 22.9757 23.2677 24.2166 22.1599 25.4533C21.052 26.6903 19.8624 27.8945 18.5909 29.0658C18.3709 29.2656 18.1207 29.4154 17.8404 29.5153C17.5604 29.6151 17.2803 29.6651 17 29.6651ZM17.0025 16.8088C17.7073 16.8088 18.3098 16.5578 18.8102 16.0559C19.3107 15.5539 19.561 14.9505 19.561 14.2457C19.561 13.5409 19.31 12.9383 18.808 12.4377C18.3061 11.9374 17.7026 11.6872 16.9975 11.6872C16.2927 11.6872 15.6902 11.9382 15.1899 12.4402C14.6893 12.9421 14.439 13.5456 14.439 14.2507C14.439 14.9555 14.69 15.558 15.192 16.0583C15.694 16.5587 16.2975 16.8088 17.0025 16.8088Z" fill="#012333"/>
</g>
</svg>
