<svg width="34" height="34" viewBox="0 0 34 34" fill="none" xmlns="http://www.w3.org/2000/svg">
<mask id="mask0_184_220" style="mask-type:alpha" maskUnits="userSpaceOnUse" x="0" y="0" width="34" height="34">
<rect width="34" height="34" fill="#D9D9D9"/>
</mask>
<g mask="url(#mask0_184_220)">
<path d="M21.2772 29.0417C18.5183 29.0417 16.1095 28.2666 14.0508 26.7162C11.9922 25.1662 10.5506 23.1806 9.72609 20.7595H5.83026C5.52922 20.7595 5.27682 20.6576 5.07305 20.4539C4.86953 20.2503 4.76776 19.9979 4.76776 19.6967C4.76776 19.3954 4.86953 19.1431 5.07305 18.9398C5.27682 18.7363 5.52922 18.6345 5.83026 18.6345H9.26568C9.17666 18.0771 9.13806 17.5018 9.14987 16.9087C9.16167 16.3158 9.20027 15.8014 9.26568 15.3656H5.83026C5.52922 15.3656 5.27682 15.2637 5.07305 15.0599C4.86953 14.8562 4.76776 14.6036 4.76776 14.3024C4.76776 14.0013 4.86953 13.749 5.07305 13.5455C5.27682 13.3422 5.52922 13.2406 5.83026 13.2406H9.75337C10.5687 10.8195 12.0034 8.8339 14.0576 7.28383C16.1117 5.73353 18.5183 4.95837 21.2772 4.95837C22.5983 4.95837 23.8566 5.15222 25.0523 5.53992C26.248 5.92785 27.3589 6.48141 28.385 7.2006C28.6362 7.37533 28.7708 7.60695 28.7888 7.89548C28.8065 8.18401 28.7085 8.42696 28.4948 8.62435C28.2809 8.83969 28.0226 8.95172 27.7199 8.96046C27.417 8.96943 27.1411 8.89045 26.8922 8.72352C26.0795 8.20171 25.199 7.79785 24.2508 7.51191C23.3028 7.22622 22.3116 7.08337 21.2772 7.08337C19.0977 7.08337 17.201 7.66551 15.5872 8.82977C13.9736 9.99403 12.7927 11.4643 12.0445 13.2406H20.1329C20.434 13.2406 20.6864 13.3424 20.8901 13.5462C21.0937 13.7497 21.1954 14.0021 21.1954 14.3034C21.1954 14.6047 21.0937 14.857 20.8901 15.0603C20.6864 15.2638 20.434 15.3656 20.1329 15.3656H11.4261C11.3224 15.9667 11.2779 16.5661 11.2926 17.1637C11.307 17.761 11.3515 18.2513 11.4261 18.6345H20.1329C20.434 18.6345 20.6864 18.7364 20.8901 18.9402C21.0937 19.1439 21.1954 19.3965 21.1954 19.6977C21.1954 19.9988 21.0937 20.2511 20.8901 20.4546C20.6864 20.6579 20.434 20.7595 20.1329 20.7595H12.0307C12.7881 22.5358 13.9736 24.006 15.5872 25.1703C17.201 26.3346 19.0977 26.9167 21.2772 26.9167C22.3138 26.9167 23.3071 26.7706 24.2572 26.4783C25.2073 26.1857 26.0856 25.7779 26.8922 25.255C27.1411 25.0878 27.4162 25.0115 27.7178 25.0262C28.019 25.0406 28.2796 25.1577 28.4994 25.3775C28.71 25.5737 28.8065 25.8161 28.7888 26.1046C28.7708 26.3931 28.6362 26.6248 28.385 26.7995C27.3589 27.5187 26.248 28.0722 25.0523 28.4602C23.8566 28.8479 22.5983 29.0417 21.2772 29.0417Z" fill="#012333"/>
</g>
</svg>
