<svg width="34" height="34" viewBox="0 0 34 34" fill="none" xmlns="http://www.w3.org/2000/svg">
<mask id="mask0_184_227" style="mask-type:alpha" maskUnits="userSpaceOnUse" x="0" y="0" width="34" height="34">
<rect width="34" height="34" fill="#D9D9D9"/>
</mask>
<g mask="url(#mask0_184_227)">
<path d="M18.0625 16.5696V10.9791C18.0625 10.6781 17.9606 10.4257 17.7568 10.2219C17.553 10.0184 17.3006 9.91663 16.9996 9.91663C16.6983 9.91663 16.446 10.0184 16.2428 10.2219C16.0392 10.4257 15.9375 10.6781 15.9375 10.9791V16.8965C15.9375 17.0632 15.9684 17.2247 16.0303 17.381C16.0919 17.5373 16.189 17.6818 16.3217 17.8145L21.1738 22.6666C21.3698 22.8628 21.6163 22.9632 21.9133 22.9677C22.2103 22.9722 22.4614 22.8718 22.6666 22.6666C22.8718 22.4614 22.9744 22.2126 22.9744 21.92C22.9744 21.6277 22.8718 21.379 22.6666 21.1738L18.0625 16.5696ZM17.0024 30.4583C15.1409 30.4583 13.3912 30.1051 11.7533 29.3986C10.1154 28.6922 8.69074 27.7335 7.47925 26.5224C6.26776 25.3114 5.30856 23.8873 4.60165 22.2501C3.89497 20.6129 3.54163 18.8637 3.54163 17.0024C3.54163 15.1409 3.89485 13.3912 4.60129 11.7533C5.30774 10.1154 6.26647 8.69074 7.47748 7.47925C8.68849 6.26776 10.1126 5.30856 11.7498 4.60165C13.387 3.89497 15.1362 3.54163 16.9975 3.54163C18.859 3.54163 20.6087 3.89485 22.2466 4.60129C23.8845 5.30774 25.3092 6.26647 26.5207 7.47748C27.7322 8.68849 28.6914 10.1126 29.3983 11.7498C30.105 13.387 30.4583 15.1362 30.4583 16.9975C30.4583 18.859 30.1051 20.6087 29.3986 22.2466C28.6922 23.8845 27.7335 25.3092 26.5224 26.5207C25.3114 27.7322 23.8873 28.6914 22.2501 29.3983C20.6129 30.105 18.8637 30.4583 17.0024 30.4583ZM17 28.3333C20.1402 28.3333 22.8142 27.2295 25.0218 25.0218C27.2295 22.8142 28.3333 20.1402 28.3333 17C28.3333 13.8597 27.2295 11.1857 25.0218 8.97808C22.8142 6.77045 20.1402 5.66663 17 5.66663C13.8597 5.66663 11.1857 6.77045 8.97808 8.97808C6.77045 11.1857 5.66663 13.8597 5.66663 17C5.66663 20.1402 6.77045 22.8142 8.97808 25.0218C11.1857 27.2295 13.8597 28.3333 17 28.3333Z" fill="#012333"/>
</g>
</svg>
