<svg width="32" height="32" viewBox="0 0 32 32" fill="none" xmlns="http://www.w3.org/2000/svg">
<mask id="mask0_184_245" style="mask-type:alpha" maskUnits="userSpaceOnUse" x="0" y="0" width="32" height="32">
<rect width="32" height="32" fill="#D9D9D9"/>
</mask>
<g mask="url(#mask0_184_245)">
<path d="M11.1 17.8L17.2333 23.9333C17.5889 24.2889 17.7667 24.7111 17.7667 25.2C17.7667 25.6889 17.5889 26.1111 17.2333 26.4667C16.8778 26.8222 16.4556 27 15.9667 27C15.4778 27 15.0556 26.8222 14.7 26.4667L5.5 17.2667C5.32222 17.0889 5.19444 16.9 5.11667 16.7C5.03889 16.5 5 16.2778 5 16.0333C5 15.7889 5.03889 15.5667 5.11667 15.3667C5.19444 15.1667 5.32222 14.9778 5.5 14.8L14.7667 5.53333C15.1222 5.17778 15.5444 5 16.0333 5C16.5222 5 16.9444 5.17778 17.3 5.53333C17.6556 5.88889 17.8333 6.31111 17.8333 6.8C17.8333 7.28889 17.6556 7.71111 17.3 8.06667L11.1 14.2667H25.9667C26.4556 14.2667 26.8722 14.4389 27.2167 14.7833C27.5611 15.1278 27.7333 15.5444 27.7333 16.0333C27.7333 16.5222 27.5611 16.9389 27.2167 17.2833C26.8722 17.6278 26.4556 17.8 25.9667 17.8H11.1Z" fill="#EFFFF7"/>
</g>
</svg>
