<svg width="32" height="32" viewBox="0 0 32 32" fill="none" xmlns="http://www.w3.org/2000/svg">
<mask id="mask0_3_13" style="mask-type:alpha" maskUnits="userSpaceOnUse" x="0" y="0" width="32" height="32">
<rect width="32" height="32" fill="#D9D9D9"/>
</mask>
<g mask="url(#mask0_3_13)">
<path d="M20.9 17.8H6.0333C5.54441 17.8 5.12774 17.6278 4.7833 17.2833C4.43885 16.9389 4.26663 16.5222 4.26663 16.0333C4.26663 15.5444 4.43885 15.1278 4.7833 14.7833C5.12774 14.4389 5.54441 14.2667 6.0333 14.2667H20.9L14.7 8.06667C14.3444 7.71111 14.1666 7.28889 14.1666 6.8C14.1666 6.31111 14.3444 5.88889 14.7 5.53333C15.0555 5.17778 15.4777 5 15.9666 5C16.4555 5 16.8777 5.17778 17.2333 5.53333L26.5 14.8C26.6777 14.9778 26.8055 15.1667 26.8833 15.3667C26.9611 15.5667 27 15.7889 27 16.0333C27 16.2778 26.9611 16.5 26.8833 16.7C26.8055 16.9 26.6777 17.0889 26.5 17.2667L17.3 26.4667C16.9444 26.8222 16.5222 27 16.0333 27C15.5444 27 15.1222 26.8222 14.7666 26.4667C14.4111 26.1111 14.2333 25.6889 14.2333 25.2C14.2333 24.7111 14.4111 24.2889 14.7666 23.9333L20.9 17.8Z" fill="#012333"/>
</g>
</svg>
