<svg width="40" height="40" viewBox="0 0 40 40" fill="none" xmlns="http://www.w3.org/2000/svg">
<mask id="mask0_11_83" style="mask-type:alpha" maskUnits="userSpaceOnUse" x="0" y="0" width="40" height="40">
<rect width="40" height="40" fill="#D9D9D9"/>
</mask>
<g mask="url(#mask0_11_83)">
<path d="M20 30C17.2222 30 14.8611 29.0278 12.9167 27.0833C10.9722 25.1389 10 22.7778 10 20C10 17.2222 10.9722 14.8611 12.9167 12.9167C14.8611 10.9722 17.2222 10 20 10C22.7778 10 25.1389 10.9722 27.0833 12.9167C29.0278 14.8611 30 17.2222 30 20C30 22.7778 29.0278 25.1389 27.0833 27.0833C25.1389 29.0278 22.7778 30 20 30ZM18.75 26.5417V23L16.25 25.5C16.6389 25.75 17.0347 25.9653 17.4375 26.1458C17.8403 26.3264 18.2778 26.4583 18.75 26.5417ZM21.25 26.5417C21.6944 26.4583 22.125 26.3264 22.5417 26.1458C22.9583 25.9653 23.3611 25.75 23.75 25.5L21.25 23V26.5417ZM25.5 23.75C25.75 23.3611 25.9653 22.9583 26.1458 22.5417C26.3264 22.125 26.4583 21.6944 26.5417 21.25H23L25.5 23.75ZM23 18.75H26.5417C26.4583 18.3056 26.3264 17.875 26.1458 17.4583C25.9653 17.0417 25.75 16.6389 25.5 16.25L23 18.75ZM21.25 17L23.75 14.5C23.3611 14.25 22.9653 14.0347 22.5625 13.8542C22.1597 13.6736 21.7222 13.5417 21.25 13.4583V17ZM20 21.6667C20.4722 21.6667 20.8681 21.5069 21.1875 21.1875C21.5069 20.8681 21.6667 20.4722 21.6667 20C21.6667 19.5278 21.5069 19.1319 21.1875 18.8125C20.8681 18.4931 20.4722 18.3333 20 18.3333C19.5278 18.3333 19.1319 18.4931 18.8125 18.8125C18.4931 19.1319 18.3333 19.5278 18.3333 20C18.3333 20.4722 18.4931 20.8681 18.8125 21.1875C19.1319 21.5069 19.5278 21.6667 20 21.6667ZM18.75 17V13.4583C18.3056 13.5417 17.875 13.6736 17.4583 13.8542C17.0417 14.0347 16.6389 14.25 16.25 14.5L18.75 17ZM13.4583 18.75H17L14.5 16.25C14.25 16.6389 14.0347 17.0417 13.8542 17.4583C13.6736 17.875 13.5417 18.3056 13.4583 18.75ZM14.5 23.75L17 21.25H13.4583C13.5417 21.6944 13.6736 22.125 13.8542 22.5417C14.0347 22.9583 14.25 23.3611 14.5 23.75ZM8.33333 35C7.41667 35 6.63194 34.6736 5.97917 34.0208C5.32639 33.3681 5 32.5833 5 31.6667V8.33333C5 7.41667 5.32639 6.63194 5.97917 5.97917C6.63194 5.32639 7.41667 5 8.33333 5H31.6667C32.5833 5 33.3681 5.32639 34.0208 5.97917C34.6736 6.63194 35 7.41667 35 8.33333V31.6667C35 32.5833 34.6736 33.3681 34.0208 34.0208C33.3681 34.6736 32.5833 35 31.6667 35H8.33333ZM8.33333 31.6667H31.6667V8.33333H8.33333V31.6667Z" fill="#012333"/>
</g>
</svg>
