<svg width="40" height="40" viewBox="0 0 40 40" fill="none" xmlns="http://www.w3.org/2000/svg">
<mask id="mask0_10_59" style="mask-type:alpha" maskUnits="userSpaceOnUse" x="0" y="0" width="40" height="40">
<rect width="40" height="40" fill="#D9D9D9"/>
</mask>
<g mask="url(#mask0_10_59)">
<path d="M18.3333 18.3333H21.6667V6.66663C21.6667 6.1944 21.5069 5.79857 21.1875 5.47913C20.8681 5.15968 20.4722 4.99996 20 4.99996C19.5278 4.99996 19.1319 5.15968 18.8125 5.47913C18.4931 5.79857 18.3333 6.1944 18.3333 6.66663V18.3333ZM8.33333 25H31.6667V21.6666H8.33333V25ZM5.91667 35H10V31.6666C10 31.1944 10.1597 30.7986 10.4792 30.4791C10.7986 30.1597 11.1944 30 11.6667 30C12.1389 30 12.5347 30.1597 12.8542 30.4791C13.1736 30.7986 13.3333 31.1944 13.3333 31.6666V35H18.3333V31.6666C18.3333 31.1944 18.4931 30.7986 18.8125 30.4791C19.1319 30.1597 19.5278 30 20 30C20.4722 30 20.8681 30.1597 21.1875 30.4791C21.5069 30.7986 21.6667 31.1944 21.6667 31.6666V35H26.6667V31.6666C26.6667 31.1944 26.8264 30.7986 27.1458 30.4791C27.4653 30.1597 27.8611 30 28.3333 30C28.8056 30 29.2014 30.1597 29.5208 30.4791C29.8403 30.7986 30 31.1944 30 31.6666V35H34.0833L32.4167 28.3333H7.58333L5.91667 35ZM34.0833 38.3333H5.91667C4.83333 38.3333 3.95833 37.9027 3.29167 37.0416C2.625 36.1805 2.43056 35.2222 2.70833 34.1666L5 25V21.6666C5 20.75 5.32639 19.9652 5.97917 19.3125C6.63195 18.6597 7.41667 18.3333 8.33333 18.3333H15V6.66663C15 5.27774 15.4861 4.09718 16.4583 3.12496C17.4306 2.15274 18.6111 1.66663 20 1.66663C21.3889 1.66663 22.5694 2.15274 23.5417 3.12496C24.5139 4.09718 25 5.27774 25 6.66663V18.3333H31.6667C32.5833 18.3333 33.3681 18.6597 34.0208 19.3125C34.6736 19.9652 35 20.75 35 21.6666V25L37.2917 34.1666C37.6528 35.2222 37.4931 36.1805 36.8125 37.0416C36.1319 37.9027 35.2222 38.3333 34.0833 38.3333Z" fill="#012333"/>
</g>
</svg>
