<svg width="40" height="40" viewBox="0 0 40 40" fill="none" xmlns="http://www.w3.org/2000/svg">
<mask id="mask0_11_119" style="mask-type:alpha" maskUnits="userSpaceOnUse" x="0" y="0" width="40" height="40">
<rect width="40" height="40" fill="#D9D9D9"/>
</mask>
<g mask="url(#mask0_11_119)">
<path d="M15 11.6667L16.6667 8.33337V6.66671H15V3.33337H25C25.4722 3.33337 25.8681 3.4931 26.1875 3.81254C26.5069 4.13199 26.6667 4.52782 26.6667 5.00004V6.66671L25 10H20V8.33337L16.6667 11.6667H15ZM13.3333 36.6667V25.25C13.3333 24.9445 13.3819 24.6181 13.4792 24.2709C13.5764 23.9237 13.6944 23.6112 13.8333 23.3334L20 11.6667H25C25.3889 12.0556 25.7639 12.5764 26.125 13.2292C26.4861 13.882 26.6667 14.4723 26.6667 15V36.6667H13.3333ZM16.6667 33.3334H23.3333V15H22L16.6667 25.1667V33.3334Z" fill="#012333"/>
</g>
</svg>
