<svg width="40" height="40" viewBox="0 0 40 40" fill="none" xmlns="http://www.w3.org/2000/svg">
<mask id="mask0_9_47" style="mask-type:alpha" maskUnits="userSpaceOnUse" x="0" y="0" width="40" height="40">
<rect width="40" height="40" fill="#D9D9D9"/>
</mask>
<g mask="url(#mask0_9_47)">
<path d="M25 38.3334H18.3333C17.8611 38.3334 17.4653 38.1736 17.1458 37.8542C16.8264 37.5348 16.6667 37.1389 16.6667 36.6667V26.6667C16.6667 26.1945 16.8264 25.7987 17.1458 25.4792C17.4653 25.1598 17.8611 25 18.3333 25H20V20H6.66668C5.75001 20 4.96529 19.6737 4.31251 19.0209C3.65973 18.3681 3.33334 17.5834 3.33334 16.6667V10C3.33334 9.08337 3.65973 8.29865 4.31251 7.64587C4.96529 6.9931 5.75001 6.66671 6.66668 6.66671H10V5.00004C10 4.52782 10.1597 4.13199 10.4792 3.81254C10.7986 3.4931 11.1945 3.33337 11.6667 3.33337H31.6667C32.1389 3.33337 32.5347 3.4931 32.8542 3.81254C33.1736 4.13199 33.3333 4.52782 33.3333 5.00004V11.6667C33.3333 12.1389 33.1736 12.5348 32.8542 12.8542C32.5347 13.1737 32.1389 13.3334 31.6667 13.3334H11.6667C11.1945 13.3334 10.7986 13.1737 10.4792 12.8542C10.1597 12.5348 10 12.1389 10 11.6667V10H6.66668V16.6667H20C20.9167 16.6667 21.7014 16.9931 22.3542 17.6459C23.007 18.2987 23.3333 19.0834 23.3333 20V25H25C25.4722 25 25.8681 25.1598 26.1875 25.4792C26.507 25.7987 26.6667 26.1945 26.6667 26.6667V36.6667C26.6667 37.1389 26.507 37.5348 26.1875 37.8542C25.8681 38.1736 25.4722 38.3334 25 38.3334ZM20 35H23.3333V28.3334H20V35ZM13.3333 10H30V6.66671H13.3333V10Z" fill="#012333"/>
</g>
</svg>
